<svg viewBox="0 0 192 51" fill="none" xmlns="http://www.w3.org/2000/svg"><g clip-path="url(#clip0_144_33433)"><path d="M43.693 5.84a18.76 18.76 0 0 0-3.565 11.236 19.09 19.09 0 0 0 3.565 11.278 14.932 14.932 0 0 0 4.646 4.16 13.328 13.328 0 0 0 6.265 1.677v-1.524a10.831 10.831 0 0 1-5.506-1.524 13.333 13.333 0 0 1-4.172-3.729 17.366 17.366 0 0 1-3.27-10.338 17.366 17.366 0 0 1 3.27-10.332 14.483 14.483 0 0 1 4.172-3.734 10.387 10.387 0 0 1 5.506-1.458V.028a12.802 12.802 0 0 0-6.265 1.61 15.012 15.012 0 0 0-4.646 4.202z" fill="url(#paint0_linear_144_33433)"/><path d="M46.79 8.115a15.287 15.287 0 0 0-2.796 8.961 15.287 15.287 0 0 0 2.796 8.961 11.105 11.105 0 0 0 3.439 3.09 8.678 8.678 0 0 0 4.375 1.203v-1.524a7.385 7.385 0 0 1-3.601-.99 10.328 10.328 0 0 1-2.97-2.657 13.487 13.487 0 0 1-2.496-8.062 13.488 13.488 0 0 1 2.501-8.077 10.33 10.33 0 0 1 2.97-2.657 6.886 6.886 0 0 1 3.596-.95V3.889a8.116 8.116 0 0 0-4.386 1.158 11.104 11.104 0 0 0-3.428 3.068z" fill="url(#paint1_linear_144_33433)"/><path d="M93.317 2.074C91.94.555 89.878.024 88.029.024a6.955 6.955 0 0 0-5.16 2.05 7.736 7.736 0 0 0-2.546 5.727v18.825a7.736 7.736 0 0 0 2.546 5.727 7.556 7.556 0 0 0 5.16 1.878 8.062 8.062 0 0 0 5.288-1.893 7.736 7.736 0 0 0 2.547-5.727V7.786a7.736 7.736 0 0 0-2.547-5.712zm1.12 24.542c.029 3.375-2.7 6.134-6.096 6.162-.104.001-.208 0-.312-.005a5.807 5.807 0 0 1-4.212-1.519 6.106 6.106 0 0 1-2.063-4.618V7.811a6.106 6.106 0 0 1 2.063-4.618 5.973 5.973 0 0 1 4.212-1.711 6.398 6.398 0 0 1 4.345 1.711 6.105 6.105 0 0 1 2.063 4.618v18.805z" fill="url(#paint2_linear_144_33433)"/><path d="M90.77 4.808a4.033 4.033 0 0 0-2.75-.982 4.218 4.218 0 0 0-2.797.982 4.04 4.04 0 0 0-1.335 2.993v18.825a4.04 4.04 0 0 0 1.335 2.992 4.218 4.218 0 0 0 2.796.983 4.033 4.033 0 0 0 2.75-.982 3.674 3.674 0 0 0 1.529-2.993V7.801a3.674 3.674 0 0 0-1.528-2.993zm-.087 21.808c.017.725-.3 1.419-.86 1.884a2.607 2.607 0 0 1-1.809.643 2.644 2.644 0 0 1-1.829-.649 2.374 2.374 0 0 1-.86-1.883V7.786a2.374 2.374 0 0 1 .86-1.869 2.643 2.643 0 0 1 1.85-.643 2.607 2.607 0 0 1 1.803.643 2.37 2.37 0 0 1 .86 1.879l-.015 18.82z" fill="url(#paint3_linear_144_33433)"/><path d="M1.12 1.613h9.668V3.8H1.12v1.585h5.837v28.806h1.594V5.385h2.237v28.806h1.594V5.385h5.837V3.8h-5.837V1.613h5.837V.028H1.12v1.585z" fill="url(#paint4_linear_144_33433)"/><path d="M22.401.416V34.19H35.9v-1.58h-8.08v-2.192h8.08v-1.58h-8.08v-8.932h8.08v-1.58h-9.678V28.84H23.99V16.135H35.9V14.53h-8.08V5.355h8.08V3.77h-9.678v10.76H23.99V1.608H35.9V.028H22.4v.388zm3.83 29.982v2.193h-2.24v-2.172l2.24-.02z" fill="url(#paint5_linear_144_33433)"/><path d="M59.86 19.76h-3.208v1.58h3.209v2.192h-3.21v1.585h3.21v9.074h1.594V.028h-1.594V19.76z" fill="url(#paint6_linear_144_33433)"/><path d="M73.746 19.76h-2.24V.028h-1.59V19.76h-4.615V.028h-1.59v34.163h1.59v-9.074h4.625v9.074h1.59v-9.074h2.24v9.074h1.59V.028h-1.59l-.01 19.732zm-8.445 3.772V21.34h4.625v2.192h-4.625zm6.22 0V21.34h2.24v2.192h-2.24z" fill="url(#paint7_linear_144_33433)"/><path d="M135.284 2.082c-1.375-1.493-3.438-2.05-5.292-2.05a6.954 6.954 0 0 0-5.16 2.05 7.736 7.736 0 0 0-2.547 5.727v7.489l-2.45-1.387-.79 1.372 3.24 1.833v2.531l-2.425-1.387-.789 1.372 3.224 1.828v12.73h1.421V22.26l2.15 1.22v10.71h1.421v-9.905l.066.036 2.639 1.534.58.329 2.069 1.175v6.832h1.589v-7.78l-1.589-.9-5.003-2.836-.376-.207v-2.532l1.426.81 3.947 2.238 1.59.901V7.81a3.677 3.677 0 0 0-1.528-2.992 4.036 4.036 0 0 0-2.705-.983 4.218 4.218 0 0 0-2.797.983 4.04 4.04 0 0 0-1.334 2.992v9.504l-2.15-1.22V7.809a6.108 6.108 0 0 1 2.063-4.618 5.974 5.974 0 0 1 4.218-1.706 6.4 6.4 0 0 1 4.345 1.711 6.108 6.108 0 0 1 2.063 4.618v26.367h1.421V7.814a7.738 7.738 0 0 0-2.537-5.732zm-7.997 5.727a2.37 2.37 0 0 1 .861-1.878 2.643 2.643 0 0 1 1.844-.643 2.607 2.607 0 0 1 1.808.643 2.37 2.37 0 0 1 .861 1.878v13.357l-5.374-3.038V7.81zm-1.421 11.332v2.532l-2.15-1.22V17.92l2.15 1.22z" fill="url(#paint8_linear_144_33433)"/><path d="M184.413 2.082c-1.375-1.519-3.438-2.05-5.287-2.05a6.955 6.955 0 0 0-5.16 2.05 7.736 7.736 0 0 0-2.547 5.727v7.489l-2.45-1.387-.774 1.372 3.24 1.833v2.531l-2.445-1.387-.795 1.367 3.224 1.828V34.19h1.421V22.26l2.15 1.22v10.71h1.421v-9.905l.066.036 2.659 1.519.581.329 2.068 1.175v6.847h1.589v-7.78l-1.589-.9-5.002-2.836-.377-.207v-2.532l1.426.81 3.948 2.238 1.589.901V7.81a3.671 3.671 0 0 0-1.528-2.992 4.032 4.032 0 0 0-2.75-.983 4.218 4.218 0 0 0-2.746.988 4.04 4.04 0 0 0-1.335 2.992v9.499l-2.149-1.22V7.809a6.104 6.104 0 0 1 2.063-4.618 5.973 5.973 0 0 1 4.212-1.711 6.398 6.398 0 0 1 4.34 1.716 6.105 6.105 0 0 1 2.038 4.613v26.367h1.421V7.809a7.733 7.733 0 0 0-2.522-5.727zm-7.997 5.727a2.37 2.37 0 0 1 .861-1.878 2.644 2.644 0 0 1 1.849-.643 2.605 2.605 0 0 1 1.803.643 2.37 2.37 0 0 1 .861 1.878v13.357l-5.374-3.038V7.81zm-1.421 11.332v2.532l-2.149-1.22V17.92l2.149 1.22z" fill="url(#paint9_linear_144_33433)"/><path d="M115.128 9.72c-.182-.559-.4-1.105-.652-1.636-.071-.152-.153-.304-.229-.456-.076-.152-.153-.283-.229-.425a7.053 7.053 0 0 0-.245-.42l-.188-.299c-.077-.116-.153-.238-.235-.354l-.208-.294-.25-.334-.219-.279-.275-.329-.224-.253-.321-.34-.199-.217a10.176 10.176 0 0 0-.417-.395l-.143-.132c-.194-.172-.392-.34-.596-.506l-.153-.091a5.086 5.086 0 0 0-.509-.365l-.189-.141-.443-.294-.234-.142-.454-.258-.239-.127-.479-.238-.219-.121a13.275 13.275 0 0 0-.55-.233l-.178-.071c-.25-.096-.51-.187-.749-.268h-.031a11.86 11.86 0 0 0-.972-.279l-.321-.086a14.67 14.67 0 0 0-.846-.157l-.362-.05a15.564 15.564 0 0 0-2.292-.127l7.784 18.32a9.094 9.094 0 0 1-1.676 2.024l-.097.076-6.709-15.878V34.19h1.529V12.155l2.343 5.489.061.147v16.4h1.528v-6.927a13.409 13.409 0 0 0 2.149-.896l3.311 7.823h1.681l-4.258-10.087a11.008 11.008 0 0 1-2.883 1.52V22.99a10.179 10.179 0 0 0 5.802-9.96 10.2 10.2 0 0 0-5.792-8.289 20.085 20.085 0 0 0-.509-.228l-.066-.035c-.23-.091-.464-.177-.703-.253l-1.075-2.532c.254.036.509.081.759.137l.193.045c.184.04.367.086.545.137l.245.076.474.152.259.096.444.177.264.117.418.197.26.137.402.223.255.152.387.248.24.162.376.273.225.172.371.31.199.171c.133.117.26.238.387.36l.158.152.509.506c.167.186.337.378.51.577l.117.157c.112.147.224.289.326.44l.153.224c.086.131.178.263.26.4l.152.253c.222.404.42.82.596 1.245a12.49 12.49 0 0 1-1.237 12.198c-.347.47-.734.856-1.121 1.327l4.695 11.053.264.623h1.676l-.381-.9-4.451-10.503a14.109 14.109 0 0 0 2.501-13.068zm-8.741-3.039a7.638 7.638 0 0 1 1.432 1.14 8.57 8.57 0 0 1 2.108 8.633l-3.825-9.043-.036-.092v-.815l.321.177z" fill="url(#paint10_linear_144_33433)"/><path d="M142.904 3.755V34.19h1.569V9.38l2.445 3.265-.183-.238V34.19h1.594V14.707l-.29-.562 5.873 7.843 5.435-7.25V34.19h1.594V12.616l2.262-3.023V34.19h1.569V3.968l-10.86 15.185-11.008-15.398z" fill="url(#paint11_linear_144_33433)"/><path d="M153.912 12.838L144.891.028h-2.17l11.191 15.651L165.108.03h-2.231l-8.965 12.81z" fill="url(#paint12_linear_144_33433)"/><path d="M186.774 7.42s1.398-3.769 4.348-5.947c-2.63 2.714-4.348 5.948-4.348 5.948s5.377-.268 5.377-6.904c0 0-5.377.738-5.377 6.904z" fill="url(#paint13_linear_144_33433)"/><path d="M.15 26.236s3.793 1.39 5.984 4.322C3.404 27.944.151 26.236.151 26.236S.42 31.58 7.095 31.58c0 0-.741-5.345-6.944-5.345z" fill="url(#paint14_linear_144_33433)"/><path d="M1.12 45.72h2.036a3.1 3.1 0 0 1 1.123.198c.325.115.624.293.881.522.246.23.44.51.572.819.139.33.207.685.2 1.043.006.358-.062.712-.2 1.043a2.42 2.42 0 0 1-.572.824 2.705 2.705 0 0 1-.881.548c-.359.136-.74.203-1.123.198H1.12V45.72zm2.036 4.173a1.77 1.77 0 0 0 .64-.11c.187-.069.357-.177.498-.318a1.5 1.5 0 0 0 .32-.49c.08-.201.12-.416.116-.632a1.68 1.68 0 0 0-.116-.63 1.474 1.474 0 0 0-.32-.522 1.417 1.417 0 0 0-.498-.324 1.726 1.726 0 0 0-.64-.114h-.887v3.13l.887.01zm5.467-4.173h3.93v1.017h-2.8v1.043h2.46v1.017h-2.46v1.09h2.833v1.018H8.623V45.72zm6.738 0h3.93v1.017h-2.797v1.043h2.462v1.017h-2.462v1.09h2.834v1.018h-3.967V45.72zm6.743 0h2.13c.286-.004.57.04.84.13.231.078.444.203.624.365.171.16.306.353.394.569.094.232.14.48.136.73.007.273-.049.544-.162.793-.105.221-.26.415-.452.569a1.953 1.953 0 0 1-.671.344 2.853 2.853 0 0 1-.824.115h-.871v1.564h-1.144v-5.18zm2.057 2.608a.938.938 0 0 0 .672-.224.738.738 0 0 0 .236-.559.707.707 0 0 0-.252-.584 1.053 1.053 0 0 0-.682-.198h-.887v1.565h.913zm8.659-2.608h1.148v2.269l2.1-2.27h1.416l-2.136 2.202 2.22 2.989h-1.38l-1.616-2.207-.604.616v1.565H32.82V45.72zm7.12 0h1.05l2.445 3.197V45.72h1.133v5.19h-.965l-2.53-3.302v3.297H39.94V45.72zm10.106 5.278a2.854 2.854 0 0 1-1.989-.782 2.56 2.56 0 0 1-.571-.845 2.656 2.656 0 0 1-.205-1.043 2.595 2.595 0 0 1 .21-1.043c.276-.65.8-1.165 1.459-1.43a2.886 2.886 0 0 1 1.117-.213 2.854 2.854 0 0 1 1.989.782c.246.24.44.528.572.845.138.33.208.685.205 1.043a2.663 2.663 0 0 1-1.669 2.472 2.88 2.88 0 0 1-1.118.215zm0-1.043c.218.003.435-.04.635-.125.188-.08.356-.2.494-.35a1.692 1.692 0 0 0 .435-1.148 1.73 1.73 0 0 0-.115-.63 1.57 1.57 0 0 0-.83-.871 1.533 1.533 0 0 0-.634-.13 1.582 1.582 0 0 0-.635.125c-.188.08-.356.2-.494.35a1.682 1.682 0 0 0-.436 1.148c0 .214.038.428.116.63.075.194.187.371.33.521.15.15.329.27.526.35.202.085.42.126.64.12l-.032.01zm4.807-4.235h1.233l1.081 3.516 1.17-3.527h.987l1.17 3.526 1.08-3.515h1.202l-1.784 5.216h-.997l-1.18-3.396-1.181 3.396h-.997l-1.784-5.216zm10.369 0h1.149v4.173h2.624v1.043h-3.752l-.021-5.216zm6.213 0h3.93v1.017h-2.797v1.043h2.461v1.017h-2.46v1.09h2.833v1.018h-3.967V45.72zm6.737 0h2.036c.384-.004.764.063 1.123.198.326.115.625.292.882.522.246.23.44.51.572.819.138.33.206.685.2 1.043.005.358-.063.712-.2 1.043-.13.311-.326.592-.572.824a2.7 2.7 0 0 1-.882.548c-.358.136-.74.203-1.123.198h-2.036V45.72zm2.036 4.173c.219.003.436-.034.64-.11a1.39 1.39 0 0 0 .494-.318 1.49 1.49 0 0 0 .32-.49c.08-.201.119-.416.115-.632a1.687 1.687 0 0 0-.115-.63 1.47 1.47 0 0 0-.32-.522 1.416 1.416 0 0 0-.493-.324 1.726 1.726 0 0 0-.64-.114h-.888v3.13l.887.01zm7.945 1.105a2.991 2.991 0 0 1-1.113-.198 2.58 2.58 0 0 1-.865-.558 2.513 2.513 0 0 1-.562-.845 2.786 2.786 0 0 1-.2-1.043 2.65 2.65 0 0 1 1.643-2.472 2.78 2.78 0 0 1 1.097-.214c.212-.002.425.014.635.047.178.03.354.075.525.135.16.059.316.134.461.224.148.09.288.192.42.303l-.724.866a2.893 2.893 0 0 0-.3-.224 1.826 1.826 0 0 0-.656-.266 2.112 2.112 0 0 0-.408-.037 1.339 1.339 0 0 0-.588.13 1.575 1.575 0 0 0-.798.872 1.7 1.7 0 0 0-.115.625c-.002.225.037.448.115.658.075.194.187.371.33.521.15.15.328.268.526.345.2.082.417.123.635.12.384.012.763-.097 1.08-.313v-.767h-1.154v-.986h2.267v2.253c-.29.241-.613.438-.96.585-.409.169-.849.25-1.291.24zm5.069-5.278h3.93v1.017h-2.797v1.043h2.461v1.017h-2.46v1.09h2.833v1.018h-3.967V45.72z" fill="#F0D9BB"/><path d="M104.005 45.72h1.17v5.19h-1.149l-.021-5.19zm5.227 1.053h-1.575V45.73h4.324v1.044h-1.574v4.136h-1.149l-.026-4.136zm11.801 4.225c-.36.001-.717-.07-1.049-.208a2.563 2.563 0 0 1-1.412-1.414 2.723 2.723 0 0 1-.199-1.043 2.684 2.684 0 0 1 .199-1.043 2.68 2.68 0 0 1 .561-.85 2.58 2.58 0 0 1 .856-.58 2.796 2.796 0 0 1 1.102-.213c.223-.002.446.017.666.057.18.037.356.091.525.162.161.066.314.15.456.25.139.099.269.209.389.329l-.73.84a2.747 2.747 0 0 0-.624-.428 1.584 1.584 0 0 0-.714-.157 1.453 1.453 0 0 0-1.086.475 1.63 1.63 0 0 0-.315.522c-.075.2-.112.412-.11.626-.002.215.035.429.11.63.07.192.175.369.31.522.276.31.675.485 1.091.48.262.01.521-.046.756-.161.223-.121.429-.27.614-.444l.729.736c-.13.139-.27.268-.42.386a2.446 2.446 0 0 1-1.033.48 3.392 3.392 0 0 1-.672.047zm7.052 0a2.855 2.855 0 0 1-1.988-.782 2.558 2.558 0 0 1-.572-.845 2.65 2.65 0 0 1-.205-1.043 2.598 2.598 0 0 1 .21-1.043 2.664 2.664 0 0 1 1.459-1.43 2.881 2.881 0 0 1 1.117-.213 2.856 2.856 0 0 1 1.989.782c.246.24.44.528.572.845.138.33.208.685.205 1.043.003.359-.069.714-.21 1.043a2.664 2.664 0 0 1-1.459 1.43 2.877 2.877 0 0 1-1.118.214zm0-1.043c.219.003.435-.04.635-.125.188-.08.356-.2.494-.35a1.65 1.65 0 0 0 .32-.521c.078-.2.117-.412.115-.626a1.746 1.746 0 0 0-.115-.631 1.571 1.571 0 0 0-.829-.871 1.535 1.535 0 0 0-.635-.13 1.58 1.58 0 0 0-.635.125c-.187.08-.355.2-.493.35a1.676 1.676 0 0 0-.436 1.148c-.002.214.038.428.115.63.075.194.187.371.331.521.149.15.328.27.525.35.197.083.41.124.624.12l-.016.01zm5.473-4.235h1.05l2.445 3.197V45.72h1.134v5.19h-.976l-2.53-3.297v3.297h-1.133l.01-5.19zm7.604 0h3.972v1.043h-2.828v1.106h2.492v1.043h-2.492v2.008h-1.149l.005-5.2zm6.517 0h3.931v1.017h-2.797v1.043h2.461v1.017h-2.461v1.09h2.833v1.018h-3.967V45.72zm6.764 0h2.388a2.062 2.062 0 0 1 1.521.521c.306.318.467.746.446 1.184a1.62 1.62 0 0 1-.309 1.044c-.206.272-.487.48-.808.6l1.275 1.851h-1.343l-1.118-1.659h-.903v1.66h-1.149V45.72zm2.309 2.52a.96.96 0 0 0 .651-.199.677.677 0 0 0 .225-.522.663.663 0 0 0-.241-.558 1.054 1.054 0 0 0-.661-.188h-1.139v1.492l1.165-.026zm4.786-2.52h3.93v1.017h-2.797v1.043h2.461v1.017h-2.461v1.09h2.849v1.018h-3.967l-.015-5.185zm6.742 0h1.05l2.445 3.197V45.72h1.134v5.19h-.976l-2.53-3.297v3.297h-1.133l.01-5.19zm10.018 5.278a2.72 2.72 0 0 1-1.05-.208 2.567 2.567 0 0 1-1.411-1.414 2.724 2.724 0 0 1-.2-1.043 2.662 2.662 0 0 1 .761-1.893 2.58 2.58 0 0 1 .856-.58 2.79 2.79 0 0 1 1.101-.213 3.5 3.5 0 0 1 .667.057c.18.037.355.091.525.162.161.067.314.15.456.25.138.099.268.209.388.329l-.703.824a2.746 2.746 0 0 0-.624-.428 1.583 1.583 0 0 0-.714-.156 1.458 1.458 0 0 0-1.091.474 1.63 1.63 0 0 0-.315.522c-.075.2-.112.412-.11.626-.002.215.035.43.11.631.07.191.175.368.31.522.276.31.674.484 1.091.48.261.009.521-.047.756-.162.223-.12.429-.27.614-.443l.729.735c-.13.14-.27.268-.42.386a2.477 2.477 0 0 1-1.034.48c-.228.044-.46.065-.692.063zm4.67-5.278h3.93v1.017h-2.797v1.043h2.461v1.017h-2.461v1.09h2.834v1.018h-3.967V45.72z" fill="#FFF1DE"/></g><defs><linearGradient id="paint0_linear_144_33433" x1="47.365" y1="35.096" x2="47.365" y2="1.303" gradientUnits="userSpaceOnUse"><stop stop-color="#65B34B"/><stop offset="1" stop-color="#FFD12B"/></linearGradient><linearGradient id="paint1_linear_144_33433" x1="49.299" y1="35.096" x2="49.299" y2="1.303" gradientUnits="userSpaceOnUse"><stop stop-color="#65B34B"/><stop offset="1" stop-color="#FFD12B"/></linearGradient><linearGradient id="paint2_linear_144_33433" x1="88.093" y1="35.04" x2="88.093" y2="1.267" gradientUnits="userSpaceOnUse"><stop stop-color="#65B34B"/><stop offset="1" stop-color="#FFD12B"/></linearGradient><linearGradient id="paint3_linear_144_33433" x1="88.093" y1="35.053" x2="88.093" y2="1.255" gradientUnits="userSpaceOnUse"><stop stop-color="#65B34B"/><stop offset="1" stop-color="#FFD12B"/></linearGradient><linearGradient id="paint4_linear_144_33433" x1="9.669" y1="35.038" x2="9.669" y2="1.354" gradientUnits="userSpaceOnUse"><stop stop-color="#65B34B"/><stop offset="1" stop-color="#FFD12B"/></linearGradient><linearGradient id="paint5_linear_144_33433" x1="29.151" y1="34.951" x2="29.151" y2="1.297" gradientUnits="userSpaceOnUse"><stop stop-color="#65B34B"/><stop offset="1" stop-color="#FFD12B"/></linearGradient><linearGradient id="paint6_linear_144_33433" x1="59.053" y1="35.039" x2="59.053" y2="1.301" gradientUnits="userSpaceOnUse"><stop stop-color="#65B34B"/><stop offset="1" stop-color="#FFD12B"/></linearGradient><linearGradient id="paint7_linear_144_33433" x1="69.529" y1="35.039" x2="69.529" y2="1.301" gradientUnits="userSpaceOnUse"><stop stop-color="#65B34B"/><stop offset="1" stop-color="#FFD12B"/></linearGradient><linearGradient id="paint8_linear_144_33433" x1="128.433" y1="35.175" x2="128.433" y2="1.455" gradientUnits="userSpaceOnUse"><stop stop-color="#65B34B"/><stop offset="1" stop-color="#FFD12B"/></linearGradient><linearGradient id="paint9_linear_144_33433" x1="177.565" y1="35.175" x2="177.565" y2="1.455" gradientUnits="userSpaceOnUse"><stop stop-color="#65B34B"/><stop offset="1" stop-color="#FFD12B"/></linearGradient><linearGradient id="paint10_linear_144_33433" x1="109.02" y1="35.027" x2="109.02" y2="1.344" gradientUnits="userSpaceOnUse"><stop stop-color="#65B34B"/><stop offset="1" stop-color="#FFD12B"/></linearGradient><linearGradient id="paint11_linear_144_33433" x1="153.838" y1="34.965" x2="153.838" y2="1.135" gradientUnits="userSpaceOnUse"><stop stop-color="#65B34B"/><stop offset="1" stop-color="#FFD12B"/></linearGradient><linearGradient id="paint12_linear_144_33433" x1="153.915" y1="34.906" x2="153.915" y2="1.223" gradientUnits="userSpaceOnUse"><stop stop-color="#65B34B"/><stop offset="1" stop-color="#FFD12B"/></linearGradient><linearGradient id="paint13_linear_144_33433" x1="189.462" y1="35.034" x2="189.462" y2="1.351" gradientUnits="userSpaceOnUse"><stop stop-color="#65B34B"/><stop offset="1" stop-color="#FFD12B"/></linearGradient><linearGradient id="paint14_linear_144_33433" x1="3.623" y1="35.038" x2="3.623" y2="1.354" gradientUnits="userSpaceOnUse"><stop stop-color="#65B34B"/><stop offset="1" stop-color="#FFD12B"/></linearGradient><clipPath id="clip0_144_33433"><path fill="#fff" transform="translate(.15)" d="M0 0h192v51H0z"/></clipPath></defs></svg>